<svg id="outline" xmlns="http://www.w3.org/2000/svg" viewBox="0 0 340 340"><title>7_brachiosaurus</title><path d="M23.621,298.129c8.171,6.369,19.071,9.566,32.534,9.566a108.292,108.292,0,0,0,18.458-1.72c33.516-5.823,54.958-12.867,66.251-17.291-.12.267-.226.538-.352.8-3.738,7.874-5.774,17.657-6.049,29.078a13.357,13.357,0,0,0,3.8,9.735,13.217,13.217,0,0,0,9.536,4h11.734a10.609,10.609,0,0,0,8.115-3.767,10.361,10.361,0,0,0,2.328-8.419,15.672,15.672,0,0,0-2.231-5.916,9.5,9.5,0,0,1-1.54-6.815,36.313,36.313,0,0,1,12.3-21.306c.12-.1.233-.21.35-.314,2.43.271,4.59.606,6.41,1,1.1.237,2.659.549,4.555.873a47.167,47.167,0,0,0,3.314,19.947,16.243,16.243,0,0,0,5.324,7.062,9.165,9.165,0,0,1,1.837,1.779,2.058,2.058,0,0,1,.186,2.209,2.231,2.231,0,0,1-2.008,1.255H188.231a5.614,5.614,0,0,1-5.528-4.641,39.348,39.348,0,0,0-4.633-12.692,3.428,3.428,0,0,0-5.948,3.41,32.471,32.471,0,0,1,3.831,10.485,12.463,12.463,0,0,0,12.278,10.294h10.242a9.056,9.056,0,0,0,8.145-5.053,8.913,8.913,0,0,0-.85-9.4,15.979,15.979,0,0,0-3.2-3.139,9.4,9.4,0,0,1-3.058-4.1,40.408,40.408,0,0,1-2.879-16.459,109.7,109.7,0,0,0,12.274.723,66.533,66.533,0,0,0,21.789-3.269c.339.616.7,1.239,1.092,1.87.814,1.306,1.618,2.727,2.389,4.224l2.5,4.854a24.278,24.278,0,0,1,2.576,8.615c.519,4.932.6,6.747.6,7.389v7.419A11.89,11.89,0,0,0,251.722,332.3h15.4a9.727,9.727,0,0,0,8.443-4.831,9.443,9.443,0,0,0,.175-9.439,18.109,18.109,0,0,0-1.435-2.216,12.782,12.782,0,0,1-2.577-7.376,47.1,47.1,0,0,0-2.884-14.919,24.368,24.368,0,0,1-1.536-10.324,59.468,59.468,0,0,1,2.438-12.676,77.9,77.9,0,0,0,8.886-6.528c-1.849,14.783-1.15,34.973,12.012,49.159a3.607,3.607,0,0,0,.259.251,13.685,13.685,0,0,1,2.34,2.935,2.286,2.286,0,0,1,.021,2.343,2.331,2.331,0,0,1-2.063,1.207h-4.335a3.428,3.428,0,0,0,0,6.856H291.2a9.216,9.216,0,0,0,7.925-13.926,20.512,20.512,0,0,0-3.559-4.44c-14.025-15.247-11.436-39.308-8.638-52.314a3.287,3.287,0,0,0,.041-.365c8.73-10.234,16.243-25.113,14.122-45.139A126.564,126.564,0,0,0,325.6,164.716c7.854-26.66,10.049-68.354-24.093-115.584a87.274,87.274,0,0,0-19.445-19.565,3.3,3.3,0,0,0-.1-.385,10.688,10.688,0,0,1-.611-2.762l-.026-.287A20.181,20.181,0,0,0,266.281,8.425a20.432,20.432,0,0,0-22.157,7.934l-.294.422a28.84,28.84,0,0,0-4.8,14.486c-.181,2.9-.813,8.233-2.973,12.317l-.8.617a10.754,10.754,0,0,0,9.446,18.882l.108-.031a23.434,23.434,0,0,1,10.482-.426c4.029.741,9.635,1.02,14.813-1.334,4.887,4.937,19.205,22.169,19.048,54.435-.095,19.482-7.874,38.056-21.342,50.96a60.939,60.939,0,0,1-10.183,7.987c-4.357-.142-21.425-.23-43.65,5.567-23.332,6.087-56.9,20.12-84.355,52.409-1.7,1.739-32.684,33.092-60.1,39.672-8.2,1.967-15.463,2.493-21.586,1.56a10.945,10.945,0,0,1-8.172-5.813,10.669,10.669,0,0,1-.06-9.774,17.489,17.489,0,0,1,8.1-7.851c12.749-6.373,22.984,4.583,23.4,5.044a3.428,3.428,0,0,0,5.959-2.607,25.329,25.329,0,0,0-9.633-16.747c-6.77-5.034-16.111-6.383-27.772-4-.337.069-33.629,7.369-29.938,42A36.341,36.341,0,0,0,23.621,298.129ZM245.876,31.7a22,22,0,0,1,3.614-11.046l.228-.328a13.5,13.5,0,0,1,14.79-5.274,13.318,13.318,0,0,1,9.583,9.422c-.335-.159-7.981-6.087-16.1-1.927a16.322,16.322,0,0,0-8.019,8.45,10.238,10.238,0,0,1-3.3,4.42l-1.32,1.017C245.618,34.729,245.787,33.109,245.876,31.7ZM16.653,273.439c-3.053-28.418,23.387-34.358,24.5-34.593,9.614-1.961,17.094-1.04,22.231,2.737a16.221,16.221,0,0,1,2.273,2.028,24.718,24.718,0,0,0-20.908.7,24.2,24.2,0,0,0-11.17,10.92,17.454,17.454,0,0,0,.108,15.993A17.729,17.729,0,0,0,46.91,280.66c7,1.065,15.151.5,24.217-1.672,29.982-7.2,62.149-40.246,63.5-41.65.05-.052.1-.106.147-.161,26.243-30.906,58.363-44.378,80.687-50.237,24.308-6.38,42.632-5.387,42.812-5.378a3.37,3.37,0,0,0,1.813-.393,62.125,62.125,0,0,0,12.468-9.532,73.651,73.651,0,0,0,10.806-13.128c-1.645,6.882-3.373,12.715-4.691,16.825a3.428,3.428,0,1,0,6.529,2.094c3.211-10.016,8.784-29.935,10.02-50.814,0-.032,0-.063,0-.095a80.464,80.464,0,0,0,.793-10.758,108.509,108.509,0,0,0-.94-15,139.5,139.5,0,0,1,6.277,31.462,3.428,3.428,0,0,0,3.411,3.126c.1,0,.2,0,.306-.013a3.428,3.428,0,0,0,3.112-3.717c-4.344-49.054-26.945-69.309-30.354-72.1-.853-1-1.631-1.843-2.314-2.545,2.109-3.054,3.5-7.926.877-14.3a3.428,3.428,0,1,0-6.34,2.61c2.438,5.919-.607,8.474-1.287,8.952-3.886,2.5-8.793,2.275-12.226,1.644a30.332,30.332,0,0,0-13.555.563l-.191.054a3.83,3.83,0,0,1-4.333-1.8,3.913,3.913,0,0,1,.987-5.068l1.332-1.026.014-.011,10.064-7.752a17.186,17.186,0,0,0,5.547-7.461,8.3,8.3,0,0,1,4.4-4.584c.043-.019.084-.043.128-.059,6.154-2.157,11.732,2.767,12.149,3.022a79.659,79.659,0,0,1,22.879,21.386c26.031,36.01,33.822,72.8,23.156,109.346a123.859,123.859,0,0,1-14.982,32.49,264.985,264.985,0,0,0,4.428-34.873,3.428,3.428,0,1,0-6.845-.382,262.162,262.162,0,0,1-5.017,37.592,37.248,37.248,0,0,0-4.671-6.584,3.428,3.428,0,1,0-5.131,4.548,31.47,31.47,0,0,1,7.232,14.7c3.05,23.938-9.479,39.866-19.85,48.712.547-1.18,1.122-2.382,1.754-3.621a59.817,59.817,0,0,0,6.66-23.807,3.428,3.428,0,1,0-6.845-.391,52.979,52.979,0,0,1-5.923,21.084c-6.975,13.682-8.987,24.273-9.446,30.748a31.191,31.191,0,0,0,1.953,13.211,40.261,40.261,0,0,1,2.453,12.721,19.606,19.606,0,0,0,3.964,11.31,11.5,11.5,0,0,1,.894,1.381,2.643,2.643,0,0,1-.07,2.647,2.933,2.933,0,0,1-2.541,1.464h-15.4a5.027,5.027,0,0,1-5.021-5.021v-7.419c0-1.38-.213-4.108-.633-8.106a31.123,31.123,0,0,0-3.3-11.037l-2.5-4.854c-.856-1.662-1.753-3.247-2.665-4.711-2.6-4.167-3.634-7.728-3-10.3a5.166,5.166,0,0,1,1.333-2.361,12.551,12.551,0,0,0,4.792.994,10.974,10.974,0,0,0,8.292-3.85,17.5,17.5,0,0,1,10.088-5.244,3.428,3.428,0,1,0-.589-6.83,24.228,24.228,0,0,0-14.558,7.445,4.48,4.48,0,0,1-5.678,1.039c-1.445-3.9.443-8.685,1.08-10.105.123-.253.206-.433.251-.54,10.87-22.509-1.264-36.646-1.787-37.238a3.428,3.428,0,0,0-5.153,4.523c.4.462,9.617,11.522.759,29.756-.029.058-.16.32-.341.722-.783,1.531-3.9,6.663-11.672,9.62a3.428,3.428,0,1,0,2.437,6.408,31.633,31.633,0,0,0,7.234-3.861,15.635,15.635,0,0,0,.376,1.9,11.984,11.984,0,0,0-3.521,5.98,15.091,15.091,0,0,0,.163,7.36c-15.331,5.279-35.438,1.631-41.4.344-.82-.176-1.709-.339-2.633-.493a26.893,26.893,0,0,0,3.979-12.354c.042-.649.071-1.347.09-2.069,4.4,3.267,10.371,5.181,17.86,5.7.082,0,.162.008.242.008a3.428,3.428,0,0,0,.235-6.847c-8.725-.607-14.683-3.316-17.71-8.05-5.061-7.918-.778-19.414-.737-19.522a3.428,3.428,0,1,0-6.4-2.468c-.206.535-4.5,11.937-.46,22.11.176,4.4.19,8.272.035,10.7a20.376,20.376,0,0,1-7.155,14.086,43.106,43.106,0,0,0-14.6,25.289,16.317,16.317,0,0,0,2.519,11.761,8.847,8.847,0,0,1,1.234,3.343,3.488,3.488,0,0,1-.8,2.855,3.769,3.769,0,0,1-2.881,1.338H147.8a6.414,6.414,0,0,1-4.63-1.936,6.553,6.553,0,0,1-1.855-4.78c.314-13.021,3.1-21.491,5.388-26.3a50.651,50.651,0,0,0,4.951-24.165l-.6-11.869a3.428,3.428,0,1,0-6.847.345l.6,11.869a42.14,42.14,0,0,1-1.041,11.453l-.328.144-.369.16a235.333,235.333,0,0,1-31.087,10.424,92.973,92.973,0,0,0,7.865-5.8,116.019,116.019,0,0,1,18.512-12.338,3.428,3.428,0,0,0-3.268-6.026A122.92,122.92,0,0,0,115.485,279.7c-13.9,11.464-29.932,16.789-34.517,18.148l-.065.02q-3.629.687-7.463,1.356c-20.149,3.5-35.456,1.34-45.5-6.417a29.886,29.886,0,0,1-11.278-19.255C16.66,273.512,16.657,273.476,16.653,273.439Z" id="id_101" style="fill: rgb(255, 255, 255);"></path><path d="M305.456,149.951h.032a3.428,3.428,0,0,0,3.4-3.458l-.015-1.3a3.428,3.428,0,1,0-6.855.1l.014,1.26A3.427,3.427,0,0,0,305.456,149.951Z" id="id_102" style="fill: rgb(255, 255, 255);"></path><path d="M264.8,202.93a17.085,17.085,0,0,1,3.6,3.267,30.037,30.037,0,0,1,6.11,11.195,3.428,3.428,0,1,0,6.578-1.935,36.958,36.958,0,0,0-7.519-13.765,23.533,23.533,0,0,0-5.162-4.591,3.428,3.428,0,1,0-3.608,5.829Z" id="id_103" style="fill: rgb(255, 255, 255);"></path><path d="M261.459,34.3l-1.266.856a3.428,3.428,0,1,0,3.837,5.681l1.267-.855a3.428,3.428,0,0,0-3.838-5.682Z" id="id_104" style="fill: rgb(255, 255, 255);"></path></svg>